<svg width="25" height="24" viewBox="0 0 25 24" fill="none" xmlns="http://www.w3.org/2000/svg">
<path d="M16.1293 18.7041C16.3407 18.9154 16.4594 19.2021 16.4594 19.501C16.4594 19.7999 16.3407 20.0865 16.1293 20.2978C15.918 20.5092 15.6314 20.6279 15.3325 20.6279C15.0336 20.6279 14.7469 20.5092 14.5356 20.2978L7.0356 12.7978C6.93072 12.6933 6.8475 12.5691 6.79072 12.4324C6.73394 12.2956 6.70471 12.149 6.70471 12.001C6.70471 11.8529 6.73394 11.7063 6.79072 11.5696C6.8475 11.4328 6.93072 11.3086 7.0356 11.2041L14.5356 3.7041C14.7469 3.49276 15.0336 3.37402 15.3325 3.37402C15.6314 3.37402 15.918 3.49276 16.1293 3.7041C16.3407 3.91544 16.4594 4.20209 16.4594 4.50097C16.4594 4.79986 16.3407 5.08651 16.1293 5.29785L9.42716 12L16.1293 18.7041Z" fill="#0A2638"/>
</svg>
