<svg width="25" height="24" viewBox="0 0 25 24" fill="none" xmlns="http://www.w3.org/2000/svg">
<path d="M16.4627 18.7041C16.6741 18.9154 16.7928 19.2021 16.7928 19.501C16.7928 19.7999 16.6741 20.0865 16.4627 20.2978C16.2514 20.5092 15.9647 20.6279 15.6658 20.6279C15.367 20.6279 15.0803 20.5092 14.869 20.2978L7.36897 12.7978C7.26409 12.6933 7.18088 12.5691 7.1241 12.4324C7.06731 12.2956 7.03809 12.149 7.03809 12.001C7.03809 11.8529 7.06731 11.7063 7.1241 11.5696C7.18088 11.4328 7.26409 11.3086 7.36897 11.2041L14.869 3.7041C15.0803 3.49276 15.367 3.37402 15.6658 3.37402C15.9647 3.37402 16.2514 3.49276 16.4627 3.7041C16.6741 3.91544 16.7928 4.20209 16.7928 4.50097C16.7928 4.79986 16.6741 5.08651 16.4627 5.29785L9.76054 12L16.4627 18.7041Z" fill="#0A2638"/>
</svg>
