<svg width="45" height="45" viewBox="0 0 45 45" fill="none" xmlns="http://www.w3.org/2000/svg">
<path d="M43.0064 21.9431C42.9462 21.8073 41.4905 18.5778 38.254 15.3414C33.9417 11.0291 28.495 8.75 22.5 8.75C16.505 8.75 11.0583 11.0291 6.74592 15.3414C3.50951 18.5778 2.04686 21.8125 1.99358 21.9431C1.9154 22.119 1.875 22.3093 1.875 22.5017C1.875 22.6942 1.9154 22.8845 1.99358 23.0603C2.05373 23.1961 3.50951 26.4239 6.74592 29.6603C11.0583 33.9709 16.505 36.25 22.5 36.25C28.495 36.25 33.9417 33.9709 38.254 29.6603C41.4905 26.4239 42.9462 23.1961 43.0064 23.0603C43.0846 22.8845 43.125 22.6942 43.125 22.5017C43.125 22.3093 43.0846 22.119 43.0064 21.9431ZM22.5 29.375C21.1402 29.375 19.811 28.9718 18.6804 28.2164C17.5499 27.4609 16.6687 26.3872 16.1483 25.1309C15.628 23.8747 15.4918 22.4924 15.7571 21.1588C16.0224 19.8251 16.6771 18.6001 17.6386 17.6386C18.6001 16.6772 19.8251 16.0224 21.1587 15.7571C22.4924 15.4918 23.8747 15.628 25.1309 16.1483C26.3872 16.6687 27.4609 17.5499 28.2163 18.6805C28.9718 19.811 29.375 21.1403 29.375 22.5C29.375 24.3234 28.6507 26.072 27.3613 27.3614C26.072 28.6507 24.3233 29.375 22.5 29.375Z" fill="white"/>
</svg>
