<svg width="56" height="56" viewBox="0 0 56 56" fill="none" xmlns="http://www.w3.org/2000/svg">
<rect width="56" height="56" rx="28" fill="url(#paint0_linear_19_545)" fill-opacity="0.4"/>
<path d="M32.5 17.5H23.5C22.9033 17.5 22.331 17.7371 21.909 18.159C21.4871 18.581 21.25 19.1533 21.25 19.75V36.25C21.25 36.8467 21.4871 37.419 21.909 37.841C22.331 38.2629 22.9033 38.5 23.5 38.5H32.5C33.0967 38.5 33.669 38.2629 34.091 37.841C34.5129 37.419 34.75 36.8467 34.75 36.25V19.75C34.75 19.1533 34.5129 18.581 34.091 18.159C33.669 17.7371 33.0967 17.5 32.5 17.5ZM28 22.75C27.7775 22.75 27.56 22.684 27.375 22.5604C27.19 22.4368 27.0458 22.2611 26.9606 22.0555C26.8755 21.85 26.8532 21.6238 26.8966 21.4055C26.94 21.1873 27.0472 20.9868 27.2045 20.8295C27.3618 20.6722 27.5623 20.565 27.7805 20.5216C27.9988 20.4782 28.225 20.5005 28.4305 20.5856C28.6361 20.6708 28.8118 20.815 28.9354 21C29.059 21.185 29.125 21.4025 29.125 21.625C29.125 21.9234 29.0065 22.2095 28.7955 22.4205C28.5845 22.6315 28.2984 22.75 28 22.75Z" fill="white"/>
<defs>
<linearGradient id="paint0_linear_19_545" x1="56" y1="28" x2="0" y2="28" gradientUnits="userSpaceOnUse">
<stop stop-color="#194B6A"/>
<stop offset="1" stop-color="#14A9AC"/>
</linearGradient>
</defs>
</svg>
