<svg width="1816" height="76" viewBox="0 0 1816 76" fill="none" xmlns="http://www.w3.org/2000/svg">
<rect width="76" height="76" rx="38" fill="#21994F"/>
<path d="M41.4566 40.4228L44.6909 42.0372C44.5376 42.8033 44.1233 43.4924 43.5186 43.9871C42.9139 44.4818 42.1563 44.7514 41.375 44.7499C38.6906 44.7469 36.117 43.6792 34.2188 41.781C32.3207 39.8829 31.253 37.3093 31.25 34.6249C31.2498 33.8446 31.5199 33.0883 32.0145 32.4847C32.5091 31.8812 33.1975 31.4677 33.9627 31.3145L35.577 34.5489L34.2031 36.5936C34.1005 36.7476 34.0374 36.9246 34.0195 37.1088C34.0016 37.293 34.0294 37.4788 34.1005 37.6497C34.9054 39.5627 36.4273 41.0846 38.3403 41.8895C38.5117 41.9638 38.6989 41.9942 38.885 41.978C39.0711 41.9618 39.2502 41.8995 39.4062 41.7967L41.4566 40.4228ZM52.625 37.9999C52.6256 40.5248 51.9724 43.0069 50.7291 45.2046C49.4857 47.4022 47.6946 49.2405 45.53 50.5406C43.3655 51.8406 40.9012 52.5581 38.3771 52.6232C35.8529 52.6883 33.355 52.0988 31.1262 50.912L26.338 52.5081C25.9415 52.6404 25.5161 52.6595 25.1094 52.5636C24.7026 52.4676 24.3307 52.2602 24.0352 51.9647C23.7397 51.6692 23.5323 51.2972 23.4363 50.8905C23.3403 50.4838 23.3595 50.0583 23.4917 49.6619L25.0878 44.8736C24.0446 42.9122 23.4619 40.7389 23.384 38.5187C23.3061 36.2985 23.735 34.0897 24.6382 32.06C25.5414 30.0304 26.8951 28.2331 28.5966 26.8047C30.2981 25.3763 32.3026 24.3543 34.458 23.8162C36.6135 23.2782 38.8632 23.2383 41.0363 23.6995C43.2095 24.1607 45.249 25.111 47.0001 26.4781C48.7512 27.8453 50.1678 29.5934 51.1425 31.5897C52.1171 33.5861 52.6241 35.7783 52.625 37.9999ZM47 41.3749C47.0001 41.1659 46.9421 40.9609 46.8323 40.7831C46.7225 40.6053 46.5653 40.4615 46.3784 40.368L41.8784 38.118C41.7013 38.0297 41.504 37.9897 41.3065 38.0021C41.109 38.0144 40.9182 38.0787 40.7534 38.1883L38.6877 39.5664C37.7394 39.0451 36.959 38.2647 36.4377 37.3164L37.8158 35.2506C37.9254 35.0859 37.9897 34.8951 38.002 34.6976C38.0143 34.5001 37.9744 34.3028 37.8861 34.1256L35.6361 29.6256C35.5428 29.4373 35.3987 29.2789 35.22 29.1683C35.0413 29.0576 34.8352 28.9993 34.625 28.9999C33.1332 28.9999 31.7024 29.5925 30.6475 30.6474C29.5926 31.7023 29 33.133 29 34.6249C29.0037 37.9058 30.3087 41.0512 32.6287 43.3712C34.9486 45.6912 38.0941 46.9961 41.375 46.9999C42.1137 46.9999 42.8451 46.8544 43.5276 46.5717C44.2101 46.289 44.8301 45.8747 45.3525 45.3523C45.8748 44.83 46.2891 44.2099 46.5718 43.5275C46.8545 42.845 47 42.1135 47 41.3749Z" fill="white"/>
<rect x="1740" width="76" height="76" rx="38" fill="#14A9AC"/>
<path d="M1790.44 43.6936C1790.29 43.8509 1790.1 43.9757 1789.9 44.0609C1789.69 44.1461 1789.47 44.1899 1789.25 44.1899C1789.03 44.1899 1788.81 44.1461 1788.6 44.0609C1788.4 43.9757 1788.21 43.8509 1788.05 43.6936L1778 33.6403L1767.94 43.6936C1767.63 44.0106 1767.2 44.1887 1766.75 44.1887C1766.3 44.1887 1765.87 44.0106 1765.55 43.6936C1765.24 43.3766 1765.06 42.9466 1765.06 42.4983C1765.06 42.05 1765.24 41.62 1765.55 41.303L1776.8 30.053C1776.96 29.8957 1777.15 29.7708 1777.35 29.6857C1777.56 29.6005 1777.78 29.5566 1778 29.5566C1778.22 29.5566 1778.44 29.6005 1778.65 29.6857C1778.85 29.7708 1779.04 29.8957 1779.19 30.053L1790.44 41.303C1790.6 41.4597 1790.73 41.646 1790.81 41.8512C1790.9 42.0563 1790.94 42.2762 1790.94 42.4983C1790.94 42.7204 1790.9 42.9403 1790.81 43.1454C1790.73 43.3505 1790.6 43.5368 1790.44 43.6936Z" fill="white"/>
</svg>
