<svg width="252" height="32" viewBox="0 0 252 32" fill="none" xmlns="http://www.w3.org/2000/svg">
<path d="M26.875 27.4813C26.7889 27.6381 26.6623 27.7689 26.5084 27.8602C26.3545 27.9514 26.1789 27.9997 26 28H20C19.8317 27.9999 19.6661 27.9574 19.5186 27.8764C19.3711 27.7953 19.2465 27.6783 19.1562 27.5362L14.095 19.5825L6.74 27.6725C6.5607 27.8651 6.31272 27.9793 6.04981 27.9903C5.7869 28.0012 5.53025 27.9082 5.33551 27.7312C5.14078 27.5542 5.02364 27.3076 5.00951 27.0448C4.99537 26.7821 5.08537 26.5243 5.26 26.3275L12.9812 17.8275L5.15625 5.5375C5.05988 5.3863 5.00593 5.21198 5.00005 5.03278C4.99417 4.85357 5.03658 4.67609 5.12284 4.5189C5.2091 4.36172 5.33604 4.23062 5.49036 4.13932C5.64468 4.04803 5.8207 3.99991 6 4H12C12.1683 4.00005 12.3339 4.04258 12.4814 4.12365C12.6289 4.20471 12.7535 4.32169 12.8437 4.46375L17.905 12.4175L25.26 4.3275C25.4393 4.1349 25.6873 4.02073 25.9502 4.00974C26.2131 3.99876 26.4697 4.09185 26.6645 4.26882C26.8592 4.44579 26.9764 4.69239 26.9905 4.95515C27.0046 5.21791 26.9146 5.47565 26.74 5.6725L19.0187 14.1663L26.8437 26.4638C26.9396 26.615 26.993 26.7892 26.9985 26.9682C27.004 27.1472 26.9614 27.3244 26.875 27.4813Z" fill="#0A2638"/>
<path d="M77 3H65C63.1441 3.00199 61.3648 3.74012 60.0524 5.05245C58.7401 6.36477 58.002 8.14409 58 10V22C58.002 23.8559 58.7401 25.6352 60.0524 26.9476C61.3648 28.2599 63.1441 28.998 65 29H77C78.8559 28.998 80.6352 28.2599 81.9476 26.9476C83.2599 25.6352 83.998 23.8559 84 22V10C83.998 8.14409 83.2599 6.36477 81.9476 5.05245C80.6352 3.74012 78.8559 3.00199 77 3ZM71 22C69.8133 22 68.6533 21.6481 67.6666 20.9888C66.6799 20.3295 65.9108 19.3925 65.4567 18.2961C65.0026 17.1997 64.8838 15.9933 65.1153 14.8295C65.3468 13.6656 65.9182 12.5965 66.7574 11.7574C67.5965 10.9182 68.6656 10.3468 69.8295 10.1153C70.9933 9.88378 72.1997 10.0026 73.2961 10.4567C74.3925 10.9108 75.3295 11.6799 75.9888 12.6666C76.6481 13.6533 77 14.8133 77 16C76.9983 17.5908 76.3657 19.116 75.2408 20.2408C74.116 21.3657 72.5908 21.9983 71 22ZM78.5 10C78.2033 10 77.9133 9.91203 77.6666 9.7472C77.42 9.58238 77.2277 9.34811 77.1142 9.07403C77.0007 8.79994 76.9709 8.49834 77.0288 8.20736C77.0867 7.91639 77.2296 7.64912 77.4393 7.43934C77.6491 7.22956 77.9164 7.0867 78.2074 7.02882C78.4983 6.97094 78.7999 7.00065 79.074 7.11418C79.3481 7.22771 79.5824 7.41997 79.7472 7.66664C79.912 7.91332 80 8.20333 80 8.5C80 8.89782 79.842 9.27936 79.5607 9.56066C79.2794 9.84196 78.8978 10 78.5 10ZM75 16C75 16.7911 74.7654 17.5645 74.3259 18.2223C73.8864 18.8801 73.2616 19.3928 72.5307 19.6955C71.7998 19.9983 70.9956 20.0775 70.2196 19.9231C69.4437 19.7688 68.731 19.3878 68.1716 18.8284C67.6122 18.269 67.2312 17.5563 67.0769 16.7804C66.9225 16.0044 67.0017 15.2002 67.3045 14.4693C67.6072 13.7384 68.1199 13.1136 68.7777 12.6741C69.4355 12.2346 70.2089 12 71 12C72.0609 12 73.0783 12.4214 73.8284 13.1716C74.5786 13.9217 75 14.9391 75 16Z" fill="#0A2638"/>
<path d="M139 16.0005C138.996 19.1777 137.83 22.2438 135.722 24.6213C133.614 26.9987 130.71 28.5233 127.556 28.908C127.486 28.9159 127.415 28.9089 127.348 28.8873C127.28 28.8658 127.218 28.8302 127.166 28.783C127.113 28.7357 127.071 28.6779 127.043 28.6132C127.014 28.5486 126.999 28.4786 127 28.408V19.0005H130C130.137 19.0008 130.273 18.9729 130.399 18.9185C130.524 18.8642 130.638 18.7845 130.732 18.6845C130.825 18.5845 130.898 18.4663 130.944 18.3373C130.99 18.2082 131.009 18.071 131 17.9342C130.978 17.6771 130.859 17.4378 130.668 17.2646C130.477 17.0914 130.227 16.997 129.969 17.0005H127V14.0005C127 13.47 127.211 12.9613 127.586 12.5862C127.961 12.2112 128.47 12.0005 129 12.0005H131C131.137 12.0008 131.273 11.9729 131.399 11.9185C131.524 11.8642 131.638 11.7845 131.732 11.6845C131.825 11.5845 131.898 11.4663 131.944 11.3373C131.99 11.2082 132.009 11.071 132 10.9342C131.978 10.6766 131.859 10.437 131.667 10.2637C131.475 10.0904 131.225 9.99634 130.966 10.0005H129C127.939 10.0005 126.922 10.4219 126.172 11.172C125.421 11.9222 125 12.9396 125 14.0005V17.0005H122C121.863 17.0002 121.727 17.028 121.601 17.0824C121.475 17.1367 121.362 17.2164 121.268 17.3164C121.175 17.4164 121.102 17.5346 121.056 17.6636C121.01 17.7927 120.991 17.9299 121 18.0667C121.022 18.3243 121.141 18.5639 121.333 18.7372C121.525 18.9105 121.775 19.0046 122.034 19.0005H125V28.4105C125 28.481 124.986 28.5509 124.957 28.6154C124.929 28.68 124.887 28.7377 124.835 28.785C124.782 28.8322 124.72 28.8678 124.653 28.8894C124.586 28.9111 124.515 28.9182 124.445 28.9105C121.207 28.5161 118.234 26.9203 116.117 24.439C113.999 21.9577 112.89 18.7718 113.009 15.5117C113.259 8.76171 118.726 3.27421 125.481 3.01171C127.23 2.94396 128.975 3.22965 130.611 3.85166C132.246 4.47368 133.74 5.41925 135.002 6.63183C136.264 7.8444 137.269 9.29906 137.956 10.9088C138.643 12.5185 138.998 14.2503 139 16.0005Z" fill="#0A2638"/>
<path d="M195.684 23.7175C194.796 24.5513 193.475 24.6813 192.199 24.8075C191.41 24.885 190.595 24.9662 190.15 25.2113C189.729 25.4438 189.294 26.0387 188.874 26.6138C188.199 27.54 187.432 28.5888 186.22 28.8988C185.949 28.9676 185.67 29.0016 185.39 29C184.53 29 183.677 28.71 182.902 28.4463C182.209 28.21 181.552 27.9862 181.001 27.9862C180.45 27.9862 179.794 28.21 179.1 28.4463C178.076 28.795 176.916 29.1963 175.782 28.8988C174.569 28.5888 173.802 27.54 173.127 26.6138C172.707 26.0387 172.272 25.4438 171.851 25.2113C171.406 24.9613 170.591 24.885 169.804 24.8075C168.526 24.6825 167.205 24.5513 166.317 23.7175C166.193 23.6003 166.1 23.4531 166.048 23.29C165.997 23.1268 165.988 22.9531 166.023 22.7855C166.058 22.6179 166.135 22.4621 166.247 22.3329C166.359 22.2037 166.503 22.1054 166.664 22.0475C166.675 22.0475 168.269 21.44 169.834 19.6725C170.803 18.5642 171.555 17.2836 172.051 15.8975L169.625 14.9288C169.503 14.8795 169.392 14.8067 169.298 14.7145C169.204 14.6224 169.129 14.5126 169.078 14.3916C169.027 14.2705 169 14.1405 168.998 14.009C168.997 13.8774 169.022 13.747 169.071 13.625C169.12 13.503 169.193 13.392 169.285 13.2981C169.378 13.2043 169.487 13.1295 169.608 13.0781C169.729 13.0267 169.859 12.9996 169.991 12.9984C170.122 12.9973 170.253 13.022 170.375 13.0712L172.606 13.965C172.877 12.6609 173.009 11.3318 173 10C173 7.87827 173.843 5.84344 175.343 4.34315C176.843 2.84285 178.878 2 181 2C183.122 2 185.156 2.84285 186.657 4.34315C188.157 5.84344 189 7.87827 189 10C188.991 11.3326 189.126 12.6623 189.401 13.9663L191.625 13.0712C191.747 13.022 191.877 12.9973 192.009 12.9984C192.14 12.9996 192.27 13.0267 192.391 13.0781C192.513 13.1295 192.622 13.2043 192.714 13.2981C192.807 13.392 192.879 13.503 192.929 13.625C192.978 13.747 193.003 13.8774 193.001 14.009C193 14.1405 192.973 14.2705 192.922 14.3916C192.87 14.5126 192.796 14.6224 192.702 14.7145C192.608 14.8067 192.497 14.8795 192.375 14.9288L189.962 15.8938C191.722 20.6875 195.292 22.03 195.337 22.0475C195.498 22.1054 195.642 22.2037 195.754 22.3329C195.866 22.4621 195.944 22.6179 195.978 22.7855C196.013 22.9531 196.004 23.1268 195.953 23.29C195.901 23.4531 195.808 23.6003 195.684 23.7175Z" fill="#0A2638"/>
<path d="M249 10V15C249 15.2652 248.895 15.5196 248.707 15.7071C248.52 15.8946 248.265 16 248 16C245.911 16.0049 243.852 15.5026 242 14.5363V19.5C242 22.0196 240.999 24.4359 239.218 26.2175C237.436 27.9991 235.02 29 232.5 29C229.98 29 227.564 27.9991 225.782 26.2175C224.001 24.4359 223 22.0196 223 19.5C223 14.8875 226.364 10.81 230.825 10.015C230.969 9.98942 231.117 9.9957 231.258 10.0334C231.399 10.0711 231.53 10.1393 231.642 10.2332C231.754 10.3271 231.845 10.4445 231.906 10.5769C231.968 10.7094 232 10.8538 232 11V16.3363C232 16.5255 231.946 16.7109 231.845 16.8709C231.744 17.0309 231.6 17.1589 231.429 17.24C231.025 17.4317 230.679 17.7283 230.429 18.099C230.178 18.4696 230.032 18.9007 230.005 19.3472C229.977 19.7938 230.071 20.2394 230.274 20.6376C230.478 21.0359 230.785 21.3722 231.163 21.6114C231.541 21.8506 231.976 21.984 232.424 21.9977C232.871 22.0114 233.313 21.9048 233.705 21.6891C234.097 21.4735 234.424 21.1566 234.652 20.7715C234.88 20.3865 235 19.9474 235 19.5V3C235 2.73478 235.105 2.48043 235.293 2.29289C235.48 2.10536 235.735 2 236 2H241C241.265 2 241.52 2.10536 241.707 2.29289C241.895 2.48043 242 2.73478 242 3C242.002 4.59079 242.634 6.11595 243.759 7.24081C244.884 8.36567 246.409 8.99835 248 9C248.265 9 248.52 9.10536 248.707 9.29289C248.895 9.48043 249 9.73478 249 10Z" fill="#0A2638"/>
</svg>
