<svg width="150" height="150" viewBox="0 0 150 150" fill="none" xmlns="http://www.w3.org/2000/svg">
<rect width="150" height="150" fill="#E1FEFF"/>
<path d="M122.88 77.1484L109.13 42.7734C108.873 42.1377 108.431 41.5935 107.863 41.2106C107.294 40.8278 106.623 40.6238 105.937 40.625C105.687 40.6288 105.438 40.6591 105.194 40.7152L78.4374 46.6406V37.1875C78.4374 36.2758 78.0753 35.4015 77.4306 34.7568C76.786 34.1122 75.9116 33.75 74.9999 33.75C74.0883 33.75 73.2139 34.1122 72.5693 34.7568C71.9246 35.4015 71.5624 36.2758 71.5624 37.1875V48.1789L43.3191 54.4652C42.7746 54.5841 42.2671 54.8335 41.8404 55.192C41.4138 55.5506 41.0807 56.0075 40.8699 56.5234L27.1199 90.8984C26.9554 91.3082 26.8722 91.746 26.8749 92.1875C26.8749 102.204 37.4195 105.938 44.0624 105.938C50.7054 105.938 61.2499 102.204 61.2499 92.1875C61.2527 91.746 61.1695 91.3082 61.005 90.8984L48.7546 60.2918L71.5624 55.2344V109.375H64.6874C63.7758 109.375 62.9014 109.737 62.2568 110.382C61.6121 111.026 61.2499 111.901 61.2499 112.812C61.2499 113.724 61.6121 114.599 62.2568 115.243C62.9014 115.888 63.7758 116.25 64.6874 116.25H85.3124C86.2241 116.25 87.0985 115.888 87.7431 115.243C88.3878 114.599 88.7499 113.724 88.7499 112.812C88.7499 111.901 88.3878 111.026 87.7431 110.382C87.0985 109.737 86.2241 109.375 85.3124 109.375H78.4374V53.6961L100.352 48.832L88.9949 77.1484C88.8304 77.5582 88.7472 77.996 88.7499 78.4375C88.7499 88.4535 99.2945 92.1875 105.937 92.1875C112.58 92.1875 123.125 88.4535 123.125 78.4375C123.128 77.996 123.045 77.5582 122.88 77.1484ZM54.13 92.1875H34.0163L44.0624 67.068L54.13 92.1875ZM95.9128 78.4375L105.937 53.318L115.984 78.4375H95.9128Z" fill="#14A9AC"/>
</svg>
