<svg width="106" height="19" viewBox="0 0 106 19" fill="none" xmlns="http://www.w3.org/2000/svg">
<path d="M16.4735 8.57557L13.3094 11.3058L14.2734 15.3888C14.3266 15.6105 14.3129 15.8429 14.234 16.0568C14.1552 16.2707 14.0147 16.4564 13.8304 16.5905C13.646 16.7245 13.4261 16.801 13.1983 16.8101C12.9706 16.8193 12.7452 16.7607 12.5507 16.6418L8.99996 14.4565L5.44707 16.6418C5.2526 16.76 5.02751 16.818 4.80015 16.8085C4.57278 16.7991 4.3533 16.7225 4.16935 16.5886C3.98539 16.4546 3.84519 16.2692 3.76639 16.0557C3.68759 15.8422 3.67372 15.6102 3.72652 15.3888L4.69402 11.3058L1.52996 8.57557C1.3579 8.42686 1.23347 8.23077 1.17219 8.01176C1.11092 7.79276 1.11553 7.56056 1.18544 7.34416C1.25534 7.12776 1.38746 6.93675 1.56527 6.79499C1.74309 6.65323 1.95873 6.56699 2.18527 6.54705L6.33371 6.21236L7.93402 2.33955C8.02064 2.12848 8.16807 1.94794 8.35756 1.82088C8.54705 1.69382 8.77005 1.62598 8.9982 1.62598C9.22635 1.62598 9.44934 1.69382 9.63883 1.82088C9.82833 1.94794 9.97576 2.12848 10.0624 2.33955L11.662 6.21236L15.8104 6.54705C16.0374 6.56625 16.2537 6.652 16.4321 6.79357C16.6106 6.93514 16.7433 7.12622 16.8137 7.34289C16.884 7.55955 16.8889 7.79215 16.8276 8.01155C16.7663 8.23096 16.6417 8.4274 16.4693 8.57627L16.4735 8.57557Z" fill="#FFB800"/>
<path d="M38.4735 8.57557L35.3094 11.3058L36.2734 15.3888C36.3266 15.6105 36.3129 15.8429 36.234 16.0568C36.1552 16.2707 36.0147 16.4564 35.8304 16.5905C35.646 16.7245 35.4261 16.801 35.1983 16.8101C34.9706 16.8193 34.7452 16.7607 34.5507 16.6418L31 14.4565L27.4471 16.6418C27.2526 16.76 27.0275 16.818 26.8001 16.8085C26.5728 16.7991 26.3533 16.7225 26.1693 16.5886C25.9854 16.4546 25.8452 16.2692 25.7664 16.0557C25.6876 15.8422 25.6737 15.6102 25.7265 15.3888L26.694 11.3058L23.53 8.57557C23.3579 8.42686 23.2335 8.23077 23.1722 8.01176C23.1109 7.79276 23.1155 7.56056 23.1854 7.34416C23.2553 7.12776 23.3875 6.93675 23.5653 6.79499C23.7431 6.65323 23.9587 6.56699 24.1853 6.54705L28.3337 6.21236L29.934 2.33955C30.0206 2.12848 30.1681 1.94794 30.3576 1.82088C30.5471 1.69382 30.77 1.62598 30.9982 1.62598C31.2263 1.62598 31.4493 1.69382 31.6388 1.82088C31.8283 1.94794 31.9758 2.12848 32.0624 2.33955L33.662 6.21236L37.8104 6.54705C38.0374 6.56625 38.2537 6.652 38.4321 6.79357C38.6106 6.93514 38.7433 7.12622 38.8137 7.34289C38.884 7.55955 38.8889 7.79215 38.8276 8.01155C38.7663 8.23096 38.6417 8.4274 38.4693 8.57627L38.4735 8.57557Z" fill="#FFB800"/>
<path d="M60.4735 8.57557L57.3094 11.3058L58.2734 15.3888C58.3266 15.6105 58.3129 15.8429 58.234 16.0568C58.1552 16.2707 58.0147 16.4564 57.8304 16.5905C57.646 16.7245 57.4261 16.801 57.1983 16.8101C56.9706 16.8193 56.7452 16.7607 56.5507 16.6418L53 14.4565L49.4471 16.6418C49.2526 16.76 49.0275 16.818 48.8001 16.8085C48.5728 16.7991 48.3533 16.7225 48.1693 16.5886C47.9854 16.4546 47.8452 16.2692 47.7664 16.0557C47.6876 15.8422 47.6737 15.6102 47.7265 15.3888L48.694 11.3058L45.53 8.57557C45.3579 8.42686 45.2335 8.23077 45.1722 8.01176C45.1109 7.79276 45.1155 7.56056 45.1854 7.34416C45.2553 7.12776 45.3875 6.93675 45.5653 6.79499C45.7431 6.65323 45.9587 6.56699 46.1853 6.54705L50.3337 6.21236L51.934 2.33955C52.0206 2.12848 52.1681 1.94794 52.3576 1.82088C52.5471 1.69382 52.77 1.62598 52.9982 1.62598C53.2263 1.62598 53.4493 1.69382 53.6388 1.82088C53.8283 1.94794 53.9758 2.12848 54.0624 2.33955L55.662 6.21236L59.8104 6.54705C60.0374 6.56625 60.2537 6.652 60.4321 6.79357C60.6106 6.93514 60.7433 7.12622 60.8137 7.34289C60.884 7.55955 60.8889 7.79215 60.8276 8.01155C60.7663 8.23096 60.6417 8.4274 60.4693 8.57627L60.4735 8.57557Z" fill="#FFB800"/>
<path d="M82.4735 8.57557L79.3094 11.3058L80.2734 15.3888C80.3266 15.6105 80.3129 15.8429 80.234 16.0568C80.1552 16.2707 80.0147 16.4564 79.8304 16.5905C79.646 16.7245 79.4261 16.801 79.1983 16.8101C78.9706 16.8193 78.7452 16.7607 78.5507 16.6418L75 14.4565L71.4471 16.6418C71.2526 16.76 71.0275 16.818 70.8001 16.8085C70.5728 16.7991 70.3533 16.7225 70.1693 16.5886C69.9854 16.4546 69.8452 16.2692 69.7664 16.0557C69.6876 15.8422 69.6737 15.6102 69.7265 15.3888L70.694 11.3058L67.53 8.57557C67.3579 8.42686 67.2335 8.23077 67.1722 8.01176C67.1109 7.79276 67.1155 7.56056 67.1854 7.34416C67.2553 7.12776 67.3875 6.93675 67.5653 6.79499C67.7431 6.65323 67.9587 6.56699 68.1853 6.54705L72.3337 6.21236L73.934 2.33955C74.0206 2.12848 74.1681 1.94794 74.3576 1.82088C74.5471 1.69382 74.77 1.62598 74.9982 1.62598C75.2263 1.62598 75.4493 1.69382 75.6388 1.82088C75.8283 1.94794 75.9758 2.12848 76.0624 2.33955L77.662 6.21236L81.8104 6.54705C82.0374 6.56625 82.2537 6.652 82.4321 6.79357C82.6106 6.93514 82.7433 7.12622 82.8137 7.34289C82.884 7.55955 82.8889 7.79215 82.8276 8.01155C82.7663 8.23096 82.6417 8.4274 82.4693 8.57627L82.4735 8.57557Z" fill="#FFB800"/>
<path d="M104.473 8.57557L101.309 11.3058L102.273 15.3888C102.327 15.6105 102.313 15.8429 102.234 16.0568C102.155 16.2707 102.015 16.4564 101.83 16.5905C101.646 16.7245 101.426 16.801 101.198 16.8101C100.971 16.8193 100.745 16.7607 100.551 16.6418L97 14.4565L93.4471 16.6418C93.2526 16.76 93.0275 16.818 92.8001 16.8085C92.5728 16.7991 92.3533 16.7225 92.1693 16.5886C91.9854 16.4546 91.8452 16.2692 91.7664 16.0557C91.6876 15.8422 91.6737 15.6102 91.7265 15.3888L92.694 11.3058L89.53 8.57557C89.3579 8.42686 89.2335 8.23077 89.1722 8.01176C89.1109 7.79276 89.1155 7.56056 89.1854 7.34416C89.2553 7.12776 89.3875 6.93675 89.5653 6.79499C89.7431 6.65323 89.9587 6.56699 90.1853 6.54705L94.3337 6.21236L95.934 2.33955C96.0206 2.12848 96.1681 1.94794 96.3576 1.82088C96.5471 1.69382 96.77 1.62598 96.9982 1.62598C97.2263 1.62598 97.4493 1.69382 97.6388 1.82088C97.8283 1.94794 97.9758 2.12848 98.0624 2.33955L99.662 6.21236L103.81 6.54705C104.037 6.56625 104.254 6.652 104.432 6.79357C104.611 6.93514 104.743 7.12622 104.814 7.34289C104.884 7.55955 104.889 7.79215 104.828 8.01155C104.766 8.23096 104.642 8.4274 104.469 8.57627L104.473 8.57557Z" fill="#FFB800"/>
</svg>
