<svg width="168" height="24" viewBox="0 0 168 24" fill="none" xmlns="http://www.w3.org/2000/svg">
<path d="M21.75 12C21.7469 14.383 20.8726 16.6825 19.2917 18.4656C17.7109 20.2487 15.5326 21.3921 13.1671 21.6806C13.1145 21.6866 13.0611 21.6813 13.0107 21.6652C12.9602 21.649 12.9137 21.6223 12.8743 21.5869C12.8348 21.5515 12.8034 21.5081 12.782 21.4596C12.7605 21.4111 12.7496 21.3586 12.75 21.3056V14.25H15C15.1028 14.2502 15.2045 14.2293 15.2989 14.1886C15.3933 14.1478 15.4783 14.0881 15.5487 14.0131C15.619 13.9381 15.6732 13.8494 15.7078 13.7526C15.7424 13.6558 15.7568 13.5529 15.75 13.4503C15.7334 13.2575 15.6444 13.078 15.5009 12.9481C15.3574 12.8182 15.1701 12.7474 14.9765 12.75H12.75V10.5C12.75 10.1022 12.908 9.72065 13.1893 9.43935C13.4706 9.15804 13.8521 9.00001 14.25 9.00001H15.75C15.8528 9.00023 15.9545 8.97932 16.0489 8.93856C16.1433 8.8978 16.2283 8.83807 16.2987 8.76307C16.369 8.68808 16.4232 8.59942 16.4578 8.50261C16.4924 8.4058 16.5068 8.30291 16.5 8.20032C16.4834 8.00713 16.3941 7.82742 16.2502 7.69745C16.1063 7.56748 15.9185 7.49692 15.7246 7.50001H14.25C13.4543 7.50001 12.6912 7.81608 12.1286 8.37869C11.566 8.9413 11.25 9.70436 11.25 10.5V12.75H8.99996C8.89714 12.7498 8.79538 12.7707 8.70099 12.8115C8.60659 12.8522 8.52159 12.9119 8.45126 12.9869C8.38092 13.0619 8.32676 13.1506 8.29213 13.2474C8.2575 13.3442 8.24315 13.4471 8.24996 13.5497C8.26655 13.7429 8.35579 13.9226 8.49968 14.0526C8.64357 14.1825 8.8314 14.2531 9.02527 14.25H11.25V21.3075C11.2503 21.3604 11.2394 21.4128 11.218 21.4612C11.1967 21.5096 11.1653 21.553 11.126 21.5884C11.0866 21.6238 11.0403 21.6505 10.9899 21.6667C10.9395 21.683 10.8863 21.6883 10.8337 21.6825C8.40498 21.3867 6.1758 20.1899 4.5874 18.3289C2.99901 16.468 2.16716 14.0785 2.25652 11.6334C2.44402 6.57094 6.54464 2.45532 11.6109 2.25844C12.9225 2.20764 14.231 2.4219 15.4579 2.88841C16.6848 3.35492 17.8051 4.0641 18.7516 4.97353C19.6981 5.88296 20.4515 6.97396 20.9667 8.18126C21.4819 9.38857 21.7483 10.6874 21.75 12Z" fill="white"/>
<path d="M68.1564 20.6109C68.0918 20.7286 67.9968 20.8267 67.8814 20.8951C67.766 20.9636 67.6343 20.9998 67.5001 21H63.0001C62.8739 21 62.7497 20.9681 62.6391 20.9073C62.5285 20.8465 62.435 20.7587 62.3673 20.6522L58.5714 14.6869L53.0551 20.7544C52.9206 20.8988 52.7347 20.9845 52.5375 20.9927C52.3403 21.0009 52.1478 20.9311 52.0018 20.7984C51.8557 20.6657 51.7679 20.4807 51.7573 20.2836C51.7466 20.0866 51.8142 19.8933 51.9451 19.7456L57.7361 13.3706L51.8673 4.15313C51.795 4.03973 51.7546 3.90898 51.7502 3.77458C51.7458 3.64018 51.7776 3.50707 51.8423 3.38918C51.907 3.27129 52.0022 3.17296 52.1179 3.10449C52.2336 3.03603 52.3656 2.99993 52.5001 3H57.0001C57.1263 3.00004 57.2505 3.03194 57.3611 3.09274C57.4718 3.15353 57.5652 3.24127 57.6329 3.34781L61.4289 9.31312L66.9451 3.24562C67.0796 3.10117 67.2656 3.01555 67.4628 3.00731C67.6599 2.99907 67.8524 3.06888 67.9985 3.20161C68.1445 3.33435 68.2324 3.51929 68.243 3.71636C68.2536 3.91343 68.1861 4.10674 68.0551 4.25438L62.2642 10.6247L68.1329 19.8478C68.2048 19.9613 68.2449 20.0919 68.249 20.2262C68.2531 20.3604 68.2211 20.4933 68.1564 20.6109Z" fill="white"/>
<path d="M112.5 2.25H103.5C102.108 2.25149 100.774 2.80509 99.7893 3.78933C98.8051 4.77358 98.2515 6.10807 98.25 7.5V16.5C98.2515 17.8919 98.8051 19.2264 99.7893 20.2107C100.774 21.1949 102.108 21.7485 103.5 21.75H112.5C113.892 21.7485 115.226 21.1949 116.211 20.2107C117.195 19.2264 117.749 17.8919 117.75 16.5V7.5C117.749 6.10807 117.195 4.77358 116.211 3.78933C115.226 2.80509 113.892 2.25149 112.5 2.25ZM108 16.5C107.11 16.5 106.24 16.2361 105.5 15.7416C104.76 15.2471 104.183 14.5443 103.843 13.7221C103.502 12.8998 103.413 11.995 103.586 11.1221C103.76 10.2492 104.189 9.44736 104.818 8.81802C105.447 8.18868 106.249 7.7601 107.122 7.58647C107.995 7.41283 108.9 7.50195 109.722 7.84254C110.544 8.18314 111.247 8.75991 111.742 9.49993C112.236 10.24 112.5 11.11 112.5 12C112.499 13.1931 112.024 14.337 111.181 15.1806C110.337 16.0243 109.193 16.4988 108 16.5ZM113.625 7.5C113.402 7.5 113.185 7.43402 113 7.3104C112.815 7.18679 112.671 7.01109 112.586 6.80552C112.5 6.59995 112.478 6.37375 112.522 6.15552C112.565 5.93729 112.672 5.73684 112.83 5.5795C112.987 5.42217 113.187 5.31502 113.406 5.27162C113.624 5.22821 113.85 5.25049 114.056 5.33564C114.261 5.42078 114.437 5.56498 114.56 5.74998C114.684 5.93499 114.75 6.1525 114.75 6.375C114.75 6.67337 114.631 6.95952 114.42 7.1705C114.21 7.38147 113.923 7.5 113.625 7.5ZM111 12C111 12.5933 110.824 13.1734 110.494 13.6667C110.165 14.1601 109.696 14.5446 109.148 14.7716C108.6 14.9987 107.997 15.0581 107.415 14.9424C106.833 14.8266 106.298 14.5409 105.879 14.1213C105.459 13.7018 105.173 13.1672 105.058 12.5853C104.942 12.0033 105.001 11.4001 105.228 10.8519C105.455 10.3038 105.84 9.83524 106.333 9.50559C106.827 9.17595 107.407 9 108 9C108.796 9 109.559 9.31607 110.121 9.87868C110.684 10.4413 111 11.2044 111 12Z" fill="white"/>
<path d="M158.304 13.6153L160.461 14.6916C160.358 15.2023 160.082 15.6617 159.679 15.9915C159.276 16.3213 158.771 16.501 158.25 16.5C156.46 16.498 154.745 15.7862 153.479 14.5208C152.214 13.2553 151.502 11.5396 151.5 9.75C151.5 9.2298 151.68 8.72562 152.01 8.32326C152.339 7.9209 152.798 7.64521 153.308 7.54312L154.385 9.69937L153.469 11.0625C153.4 11.1652 153.358 11.2831 153.346 11.406C153.334 11.5288 153.353 11.6526 153.4 11.7666C153.937 13.0419 154.952 14.0565 156.227 14.5931C156.341 14.6426 156.466 14.6629 156.59 14.6521C156.714 14.6413 156.833 14.5997 156.938 14.5312L158.304 13.6153ZM165.75 12C165.75 13.6833 165.315 15.338 164.486 16.8031C163.657 18.2682 162.463 19.4938 161.02 20.3605C159.577 21.2272 157.934 21.7055 156.251 21.7489C154.569 21.7923 152.903 21.3993 151.418 20.6081L148.225 21.6722C147.961 21.7603 147.677 21.7731 147.406 21.7091C147.135 21.6451 146.887 21.5069 146.69 21.3099C146.493 21.1129 146.355 20.8649 146.291 20.5938C146.227 20.3226 146.24 20.039 146.328 19.7747L147.392 16.5825C146.696 15.2749 146.308 13.826 146.256 12.3459C146.204 10.8658 146.49 9.39325 147.092 8.04012C147.694 6.687 148.597 5.48882 149.731 4.53655C150.865 3.58428 152.202 2.90295 153.639 2.54426C155.076 2.18557 156.575 2.15895 158.024 2.46644C159.473 2.77392 160.833 3.40742 162 4.31885C163.167 5.23027 164.112 6.39567 164.762 7.72659C165.411 9.0575 165.749 10.5189 165.75 12ZM162 14.25C162 14.1107 161.961 13.9741 161.888 13.8555C161.815 13.7369 161.71 13.6411 161.586 13.5787L158.586 12.0787C158.468 12.0199 158.336 11.9932 158.204 12.0015C158.073 12.0097 157.945 12.0525 157.836 12.1256L156.458 13.0444C155.826 12.6968 155.306 12.1766 154.958 11.5444L155.877 10.1672C155.95 10.0573 155.993 9.93016 156.001 9.79848C156.01 9.6668 155.983 9.53527 155.924 9.41719L154.424 6.41719C154.362 6.29163 154.266 6.18599 154.147 6.11226C154.028 6.03852 153.89 5.99963 153.75 6C152.755 6 151.802 6.39509 151.098 7.09835C150.395 7.80161 150 8.75544 150 9.75C150.002 11.9373 150.872 14.0343 152.419 15.5809C153.966 17.1275 156.063 17.9975 158.25 18C158.742 18 159.23 17.903 159.685 17.7145C160.14 17.5261 160.553 17.2499 160.902 16.9016C161.25 16.5534 161.526 16.14 161.715 15.6851C161.903 15.2301 162 14.7425 162 14.25Z" fill="white"/>
</svg>
