<svg width="56" height="56" viewBox="0 0 56 56" fill="none" xmlns="http://www.w3.org/2000/svg">
<rect width="56" height="56" fill="#14A9AC" fill-opacity="0.1"/>
<path d="M39.25 23.5001C39.2503 23.089 39.1541 22.6835 38.9691 22.3164C38.784 21.9493 38.5153 21.6307 38.1846 21.3864C37.8539 21.1422 37.4705 20.979 37.0652 20.91C36.6599 20.8411 36.244 20.8683 35.8512 20.9895C35.4583 21.1107 35.0994 21.3225 34.8034 21.6078C34.5073 21.8931 34.2824 22.2439 34.1468 22.6321C34.0112 23.0202 33.9687 23.4347 34.0227 23.8423C34.0766 24.2499 34.2255 24.6391 34.4575 24.9786L31.9459 28.0723L29.6875 22.8814C30.0994 22.5347 30.3947 22.0698 30.5335 21.5496C30.6722 21.0294 30.6477 20.4792 30.4632 19.9734C30.2787 19.4676 29.9431 19.0308 29.502 18.7222C29.0609 18.4136 28.5355 18.248 27.9971 18.248C27.4588 18.248 26.9334 18.4136 26.4923 18.7222C26.0512 19.0308 25.7156 19.4676 25.5311 19.9734C25.3466 20.4792 25.3221 21.0294 25.4608 21.5496C25.5996 22.0698 25.8949 22.5347 26.3068 22.8814L24.054 28.0695L21.5425 24.9758C21.8651 24.503 22.0244 23.9378 21.9961 23.3662C21.9677 22.7945 21.7534 22.2478 21.3856 21.8093C21.0178 21.3707 20.5168 21.0644 19.9588 20.937C19.4009 20.8095 18.8165 20.8679 18.2948 21.1033C17.7731 21.3386 17.3426 21.738 17.0689 22.2407C16.7952 22.7433 16.6933 23.3217 16.7786 23.8876C16.864 24.4535 17.132 24.9761 17.5418 25.3756C17.9516 25.7751 18.4808 26.0298 19.0487 26.1008L20.4062 34.2467C20.4646 34.5969 20.6453 34.9151 20.9161 35.1446C21.187 35.3741 21.5305 35.5001 21.8856 35.5001H34.1143C34.4694 35.5001 34.8129 35.3741 35.0838 35.1446C35.3547 34.9151 35.5353 34.5969 35.5937 34.2467L36.9503 26.1045C37.5851 26.0252 38.1692 25.7168 38.5926 25.2372C39.0161 24.7577 39.2499 24.1399 39.25 23.5001ZM28 19.7501C28.2225 19.7501 28.44 19.8161 28.625 19.9397C28.81 20.0634 28.9542 20.2391 29.0393 20.4446C29.1245 20.6502 29.1467 20.8764 29.1033 21.0946C29.0599 21.3129 28.9528 21.5133 28.7954 21.6706C28.6381 21.828 28.4377 21.9351 28.2194 21.9785C28.0012 22.0219 27.775 21.9997 27.5694 21.9145C27.3639 21.8294 27.1882 21.6852 27.0646 21.5002C26.9409 21.3152 26.875 21.0977 26.875 20.8751C26.875 20.5768 26.9935 20.2906 27.2045 20.0797C27.4154 19.8687 27.7016 19.7501 28 19.7501ZM18.25 23.5001C18.25 23.2776 18.3159 23.0601 18.4396 22.8751C18.5632 22.6901 18.7389 22.5459 18.9444 22.4608C19.15 22.3756 19.3762 22.3534 19.5944 22.3968C19.8127 22.4402 20.0131 22.5473 20.1704 22.7047C20.3278 22.862 20.4349 23.0624 20.4783 23.2807C20.5217 23.4989 20.4995 23.7251 20.4143 23.9307C20.3292 24.1362 20.185 24.3119 20 24.4356C19.815 24.5592 19.5975 24.6251 19.375 24.6251C19.0766 24.6251 18.7904 24.5066 18.5795 24.2956C18.3685 24.0847 18.25 23.7985 18.25 23.5001ZM36.625 24.6251C36.4025 24.6251 36.1849 24.5592 35.9999 24.4356C35.8149 24.3119 35.6707 24.1362 35.5856 23.9307C35.5004 23.7251 35.4782 23.4989 35.5216 23.2807C35.565 23.0624 35.6721 22.862 35.8295 22.7047C35.9868 22.5473 36.1873 22.4402 36.4055 22.3968C36.6237 22.3534 36.8499 22.3756 37.0555 22.4608C37.261 22.5459 37.4367 22.6901 37.5604 22.8751C37.684 23.0601 37.75 23.2776 37.75 23.5001C37.75 23.7985 37.6314 24.0847 37.4204 24.2956C37.2095 24.5066 36.9233 24.6251 36.625 24.6251Z" fill="#14A9AC"/>
</svg>
