<svg width="64" height="64" viewBox="0 0 64 64" fill="none" xmlns="http://www.w3.org/2000/svg">
<rect width="64" height="64" rx="32" fill="white" fill-opacity="0.2"/>
<path d="M32.0001 34.7326L25.3843 28.1159L25.3842 28.1159C25.1497 27.8814 24.8317 27.7496 24.5001 27.7496C24.1684 27.7496 23.8504 27.8814 23.6159 28.1159C23.3814 28.3504 23.2496 28.6684 23.2496 29.0001C23.2496 29.3317 23.3814 29.6497 23.6159 29.8842L31.1157 37.384L31.1159 37.3842L31.4694 37.0307L32.0001 34.7326ZM32.0001 34.7326L38.6158 28.1159L38.6159 28.1159C38.732 27.9998 38.8698 27.9077 39.0215 27.8448C39.1732 27.782 39.3358 27.7496 39.5001 27.7496C39.6643 27.7496 39.8269 27.782 39.9786 27.8448C40.1303 27.9077 40.2681 27.9998 40.3842 28.1159L40.3842 28.1159C40.5003 28.232 40.5924 28.3698 40.6553 28.5215C40.7181 28.6732 40.7505 28.8358 40.7505 29.0001C40.7505 29.1643 40.7181 29.3269 40.6553 29.4786C40.5924 29.6303 40.5003 29.7681 40.3842 29.8842L40.0307 29.5307L40.3842 29.8842L32.8844 37.384M32.0001 34.7326L32.8844 37.384M32.8844 37.384L32.8842 37.3842L32.5307 37.0307L32.8844 37.384Z" fill="white" stroke="white"/>
</svg>
