<svg width="112" height="112" viewBox="0 0 112 112" fill="none" xmlns="http://www.w3.org/2000/svg">
<g filter="url(#filter0_d_8_96)">
<rect x="24" y="88" width="64" height="64" transform="rotate(-90 24 88)" fill="white" shape-rendering="crispEdges"/>
<rect x="24.5" y="87.5" width="63" height="63" transform="rotate(-90 24.5 87.5)" stroke="#0A2638" stroke-opacity="0.05" shape-rendering="crispEdges"/>
<path d="M58.7325 56.0001L52.1158 62.6159L52.1157 62.6159C51.8813 62.8504 51.7495 63.1684 51.7495 63.5001C51.7495 63.8317 51.8813 64.1498 52.1157 64.3842C52.3502 64.6187 52.6683 64.7505 52.9999 64.7505C53.3316 64.7505 53.6496 64.6187 53.8841 64.3842L61.3839 56.8844L61.3841 56.8843L61.0306 56.5307L58.7325 56.0001ZM58.7325 56.0001L52.1158 49.3843L52.1157 49.3842C51.9996 49.2681 51.9075 49.1303 51.8447 48.9786C51.7819 48.8269 51.7495 48.6643 51.7495 48.5001C51.7495 48.3359 51.7819 48.1733 51.8447 48.0216C51.9075 47.8699 51.9996 47.732 52.1157 47.6159L52.1158 47.6159C52.2319 47.4998 52.3697 47.4077 52.5214 47.3448C52.6731 47.282 52.8357 47.2497 52.9999 47.2497C53.1641 47.2497 53.3267 47.282 53.4784 47.3448C53.6301 47.4077 53.768 47.4998 53.8841 47.6159L53.5306 47.9694L53.8841 47.6159L61.3839 55.1157M58.7325 56.0001L61.3839 55.1157M61.3839 55.1157L61.3841 55.1159L61.0306 55.4694L61.3839 55.1157Z" fill="#0A2638" stroke="#0A2638"/>
</g>
<defs>
<filter id="filter0_d_8_96" x="0" y="0" width="112" height="112" filterUnits="userSpaceOnUse" color-interpolation-filters="sRGB">
<feFlood flood-opacity="0" result="BackgroundImageFix"/>
<feColorMatrix in="SourceAlpha" type="matrix" values="0 0 0 0 0 0 0 0 0 0 0 0 0 0 0 0 0 0 127 0" result="hardAlpha"/>
<feOffset/>
<feGaussianBlur stdDeviation="12"/>
<feComposite in2="hardAlpha" operator="out"/>
<feColorMatrix type="matrix" values="0 0 0 0 0 0 0 0 0 0 0 0 0 0 0 0 0 0 0.07 0"/>
<feBlend mode="normal" in2="BackgroundImageFix" result="effect1_dropShadow_8_96"/>
<feBlend mode="normal" in="SourceGraphic" in2="effect1_dropShadow_8_96" result="shape"/>
</filter>
</defs>
</svg>
