<svg width="56" height="56" viewBox="0 0 56 56" fill="none" xmlns="http://www.w3.org/2000/svg">
<rect width="56" height="56" fill="#14A9AC" fill-opacity="0.1"/>
<path d="M20.9396 25.3105C20.8003 25.1712 20.6898 25.0058 20.6144 24.8238C20.539 24.6418 20.5002 24.4467 20.5002 24.2497C20.5002 24.0527 20.539 23.8576 20.6144 23.6756C20.6898 23.4936 20.8003 23.3282 20.9396 23.1889L26.9396 17.1889C27.221 16.9076 27.6025 16.7495 28.0004 16.7495C28.3983 16.7495 28.7799 16.9076 29.0612 17.1889C29.3425 17.4702 29.5006 17.8518 29.5006 18.2497C29.5006 18.6476 29.3425 19.0291 29.0612 19.3105L23.0612 25.3105C22.9219 25.4498 22.7565 25.5603 22.5745 25.6357C22.3925 25.7111 22.1974 25.7499 22.0004 25.7499C21.8034 25.7499 21.6083 25.7111 21.4263 25.6357C21.2443 25.5603 21.0789 25.4498 20.9396 25.3105ZM38.8112 26.9389C38.6719 26.7996 38.5065 26.6891 38.3245 26.6137C38.1425 26.5383 37.9474 26.4994 37.7504 26.4994C37.5534 26.4994 37.3583 26.5383 37.1763 26.6137C36.9943 26.6891 36.8289 26.7996 36.6896 26.9389L30.6896 32.9389C30.5503 33.0782 30.4398 33.2436 30.3644 33.4256C30.289 33.6076 30.2502 33.8027 30.2502 33.9997C30.2502 34.1967 30.289 34.3918 30.3644 34.5738C30.4398 34.7558 30.5503 34.9212 30.6896 35.0605C30.8289 35.1998 30.9943 35.3103 31.1763 35.3857C31.3583 35.4611 31.5534 35.4999 31.7504 35.4999C31.9474 35.4999 32.1425 35.4611 32.3245 35.3857C32.5065 35.3103 32.6719 35.1998 32.8112 35.0605L38.8112 29.0605C38.9505 28.9212 39.061 28.7558 39.1364 28.5738C39.2118 28.3918 39.2507 28.1967 39.2507 27.9997C39.2507 27.8027 39.2118 27.6076 39.1364 27.4256C39.061 27.2436 38.9505 27.0782 38.8112 26.9389ZM35.5196 25.4577L30.5424 20.4805C30.5076 20.4456 30.4663 20.4179 30.4207 20.3991C30.3752 20.3802 30.3264 20.3705 30.2771 20.3705C30.2279 20.3705 30.1791 20.3802 30.1335 20.3991C30.088 20.4179 30.0466 20.4456 30.0118 20.4805L24.2312 26.2611C24.1963 26.2959 24.1687 26.3373 24.1498 26.3828C24.1309 26.4283 24.1212 26.4771 24.1212 26.5264C24.1212 26.5757 24.1309 26.6245 24.1498 26.67C24.1687 26.7155 24.1963 26.7569 24.2312 26.7917L25.6562 28.2195L18.6896 35.1898C18.4202 35.4734 18.2722 35.8511 18.2772 36.2422C18.2822 36.6333 18.4398 37.0071 18.7164 37.2837C18.993 37.5603 19.3668 37.7179 19.7579 37.7229C20.149 37.7279 20.5267 37.5799 20.8103 37.3105L27.7806 30.3439L29.2084 31.7717C29.2432 31.8066 29.2846 31.8342 29.3301 31.8531C29.3756 31.872 29.4244 31.8817 29.4737 31.8817C29.523 31.8817 29.5718 31.872 29.6173 31.8531C29.6628 31.8342 29.7042 31.8066 29.739 31.7717L35.5196 25.9911C35.5549 25.9562 35.5829 25.9147 35.6021 25.8689C35.6212 25.8231 35.631 25.774 35.631 25.7244C35.631 25.6748 35.6212 25.6256 35.6021 25.5798C35.5829 25.5341 35.5549 25.4925 35.5196 25.4577Z" fill="#14A9AC"/>
</svg>
