<svg width="56" height="56" viewBox="0 0 56 56" fill="none" xmlns="http://www.w3.org/2000/svg">
<rect width="56" height="56" rx="28" fill="url(#paint0_linear_19_519)" fill-opacity="0.4"/>
<path d="M29.5253 20.3057C29.5508 20.2106 29.5947 20.1213 29.6547 20.0431C29.7147 19.965 29.7894 19.8994 29.8748 19.8501C29.9601 19.8008 30.0543 19.7688 30.152 19.756C30.2496 19.7431 30.3489 19.7496 30.4441 19.7751C31.8344 20.1379 33.103 20.8647 34.119 21.8808C35.1351 22.8968 35.8619 24.1654 36.2247 25.5557C36.2502 25.6509 36.2567 25.7502 36.2439 25.8479C36.231 25.9455 36.199 26.0397 36.1497 26.1251C36.1005 26.2104 36.0349 26.2852 35.9567 26.3451C35.8785 26.4051 35.7893 26.449 35.6941 26.4745C35.6307 26.4911 35.5655 26.4996 35.5 26.4998C35.3349 26.4999 35.1743 26.4454 35.0433 26.3449C34.9122 26.2444 34.8181 26.1034 34.7753 25.9439C34.4796 24.8087 33.8865 23.7729 33.0571 22.9434C32.2277 22.1138 31.192 21.5204 30.0569 21.2245C29.9616 21.1991 29.8723 21.1552 29.794 21.0953C29.7157 21.0354 29.65 20.9607 29.6006 20.8753C29.5513 20.79 29.5192 20.6958 29.5063 20.598C29.4933 20.5003 29.4998 20.401 29.5253 20.3057ZM29.3069 24.2245C30.5997 24.5695 31.4303 25.4011 31.7753 26.6939C31.8181 26.8534 31.9122 26.9944 32.0433 27.0949C32.1743 27.1954 32.3349 27.2499 32.5 27.2498C32.5655 27.2496 32.6307 27.2411 32.6941 27.2245C32.7893 27.199 32.8785 27.1551 32.9567 27.0951C33.0349 27.0352 33.1005 26.9604 33.1497 26.8751C33.199 26.7897 33.231 26.6955 33.2439 26.5979C33.2567 26.5002 33.2502 26.4009 33.2247 26.3057C32.7447 24.5095 31.4903 23.2551 29.6941 22.7751C29.5019 22.7238 29.2971 22.7509 29.1249 22.8505C28.9527 22.9501 28.8271 23.114 28.7758 23.3062C28.7244 23.4984 28.7516 23.7031 28.8512 23.8754C28.9508 24.0476 29.1147 24.1732 29.3069 24.2245ZM36.0972 31.6054L31.6806 29.6264L31.6684 29.6207C31.4392 29.5227 31.189 29.4833 30.9407 29.5062C30.6924 29.5292 30.4537 29.6136 30.2463 29.752C30.2218 29.7681 30.1984 29.7857 30.1759 29.8045L27.8941 31.7498C26.4484 31.0476 24.9559 29.5664 24.2538 28.1395L26.2019 25.8229C26.2206 25.7995 26.2384 25.7761 26.2553 25.7507C26.3907 25.5438 26.4729 25.3067 26.4945 25.0603C26.5161 24.814 26.4764 24.5662 26.3791 24.3389V24.3276L24.3944 19.9036C24.2657 19.6066 24.0444 19.3593 23.7636 19.1984C23.4828 19.0376 23.1575 18.9718 22.8363 19.0111C21.5659 19.1782 20.3999 19.8021 19.5559 20.7661C18.7119 21.7302 18.2477 22.9685 18.25 24.2498C18.25 31.6936 24.3063 37.7498 31.75 37.7498C33.0313 37.7521 34.2696 37.2879 35.2337 36.4439C36.1977 35.6 36.8216 34.4339 36.9888 33.1636C37.0281 32.8424 36.9625 32.5172 36.8018 32.2364C36.6411 31.9556 36.394 31.7343 36.0972 31.6054Z" fill="white"/>
<defs>
<linearGradient id="paint0_linear_19_519" x1="56" y1="28" x2="0" y2="28" gradientUnits="userSpaceOnUse">
<stop stop-color="#194B6A"/>
<stop offset="1" stop-color="#14A9AC"/>
</linearGradient>
</defs>
</svg>
