<svg width="56" height="56" viewBox="0 0 56 56" fill="none" xmlns="http://www.w3.org/2000/svg">
<rect width="56" height="56" fill="#14A9AC" fill-opacity="0.1"/>
<path d="M30.25 26.5C30.25 26.6989 30.171 26.8897 30.0303 27.0303C29.8897 27.171 29.6989 27.25 29.5 27.25H26.5C26.3011 27.25 26.1103 27.171 25.9697 27.0303C25.829 26.8897 25.75 26.6989 25.75 26.5C25.75 26.3011 25.829 26.1103 25.9697 25.9697C26.1103 25.829 26.3011 25.75 26.5 25.75H29.5C29.6989 25.75 29.8897 25.829 30.0303 25.9697C30.171 26.1103 30.25 26.3011 30.25 26.5ZM37.75 22.75V34.75C37.75 35.1478 37.592 35.5294 37.3107 35.8107C37.0294 36.092 36.6478 36.25 36.25 36.25H19.75C19.3522 36.25 18.9706 36.092 18.6893 35.8107C18.408 35.5294 18.25 35.1478 18.25 34.75V22.75C18.25 22.3522 18.408 21.9706 18.6893 21.6893C18.9706 21.408 19.3522 21.25 19.75 21.25H23.5V20.5C23.5 19.9033 23.7371 19.331 24.159 18.909C24.581 18.4871 25.1533 18.25 25.75 18.25H30.25C30.8467 18.25 31.419 18.4871 31.841 18.909C32.2629 19.331 32.5 19.9033 32.5 20.5V21.25H36.25C36.6478 21.25 37.0294 21.408 37.3107 21.6893C37.592 21.9706 37.75 22.3522 37.75 22.75ZM25 21.25H31V20.5C31 20.3011 30.921 20.1103 30.7803 19.9697C30.6397 19.829 30.4489 19.75 30.25 19.75H25.75C25.5511 19.75 25.3603 19.829 25.2197 19.9697C25.079 20.1103 25 20.3011 25 20.5V21.25ZM36.25 26.6509V22.75H19.75V26.6509C22.2815 28.0289 25.1178 28.7505 28 28.75C30.8822 28.7505 33.7185 28.0289 36.25 26.6509Z" fill="#14A9AC"/>
</svg>
