<svg width="56" height="56" viewBox="0 0 56 56" fill="none" xmlns="http://www.w3.org/2000/svg">
<rect width="56" height="56" fill="#14A9AC" fill-opacity="0.1"/>
<path d="M37 37C37 37.1989 36.921 37.3897 36.7803 37.5303C36.6397 37.671 36.4489 37.75 36.25 37.75H19.75C19.5511 37.75 19.3603 37.671 19.2197 37.5303C19.079 37.3897 19 37.1989 19 37C19 36.8011 19.079 36.6103 19.2197 36.4697C19.3603 36.329 19.5511 36.25 19.75 36.25H36.25C36.4489 36.25 36.6397 36.329 36.7803 36.4697C36.921 36.6103 37 36.8011 37 37ZM35.5 28H30.2097L31.6825 21.1291C31.7763 20.6917 31.7711 20.2389 31.6673 19.8038C31.5635 19.3687 31.3637 18.9624 31.0826 18.6145C30.8015 18.2666 30.4461 17.9859 30.0425 17.7931C29.6389 17.6003 29.1973 17.5001 28.75 17.5H27.25C26.8027 17.5001 26.3611 17.6003 25.9575 17.7931C25.5539 17.9859 25.1985 18.2666 24.9174 18.6145C24.6363 18.9624 24.4365 19.3687 24.3327 19.8038C24.2289 20.2389 24.2237 20.6917 24.3175 21.1291L25.7903 28H20.5C20.1022 28 19.7206 28.158 19.4393 28.4393C19.158 28.7206 19 29.1022 19 29.5V33.25C19 33.6478 19.158 34.0294 19.4393 34.3107C19.7206 34.592 20.1022 34.75 20.5 34.75H35.5C35.8978 34.75 36.2794 34.592 36.5607 34.3107C36.842 34.0294 37 33.6478 37 33.25V29.5C37 29.1022 36.842 28.7206 36.5607 28.4393C36.2794 28.158 35.8978 28 35.5 28Z" fill="#14A9AC"/>
</svg>
