<svg width="56" height="56" viewBox="0 0 56 56" fill="none" xmlns="http://www.w3.org/2000/svg">
<rect width="56" height="56" rx="28" fill="url(#paint0_linear_19_512)" fill-opacity="0.4"/>
<path d="M28 17.5C25.8127 17.5025 23.7157 18.3725 22.1691 19.9191C20.6225 21.4657 19.7525 23.5627 19.75 25.75C19.75 32.8094 27.25 38.1409 27.5697 38.3641C27.6958 38.4524 27.846 38.4998 28 38.4998C28.154 38.4998 28.3042 38.4524 28.4303 38.3641C28.75 38.1409 36.25 32.8094 36.25 25.75C36.2475 23.5627 35.3775 21.4657 33.8309 19.9191C32.2843 18.3725 30.1873 17.5025 28 17.5ZM28 22.75C28.5933 22.75 29.1734 22.9259 29.6667 23.2556C30.1601 23.5852 30.5446 24.0538 30.7716 24.6019C30.9987 25.1501 31.0581 25.7533 30.9424 26.3353C30.8266 26.9172 30.5409 27.4518 30.1213 27.8713C29.7018 28.2909 29.1672 28.5766 28.5853 28.6924C28.0033 28.8081 27.4001 28.7487 26.8519 28.5216C26.3038 28.2946 25.8352 27.9101 25.5056 27.4167C25.1759 26.9234 25 26.3433 25 25.75C25 24.9544 25.3161 24.1913 25.8787 23.6287C26.4413 23.0661 27.2044 22.75 28 22.75Z" fill="white"/>
<defs>
<linearGradient id="paint0_linear_19_512" x1="56" y1="28" x2="0" y2="28" gradientUnits="userSpaceOnUse">
<stop stop-color="#194B6A"/>
<stop offset="1" stop-color="#14A9AC"/>
</linearGradient>
</defs>
</svg>
