<svg width="56" height="56" viewBox="0 0 56 56" fill="none" xmlns="http://www.w3.org/2000/svg">
<rect width="56" height="56" rx="28" fill="url(#paint0_linear_19_526)" fill-opacity="0.4"/>
<path d="M37 20.5H19C18.8011 20.5 18.6103 20.579 18.4697 20.7197C18.329 20.8603 18.25 21.0511 18.25 21.25V34C18.25 34.3978 18.408 34.7794 18.6893 35.0607C18.9706 35.342 19.3522 35.5 19.75 35.5H36.25C36.6478 35.5 37.0294 35.342 37.3107 35.0607C37.592 34.7794 37.75 34.3978 37.75 34V21.25C37.75 21.0511 37.671 20.8603 37.5303 20.7197C37.3897 20.579 37.1989 20.5 37 20.5ZM36.25 34H19.75V22.9553L27.4928 30.0531C27.6312 30.1801 27.8122 30.2506 28 30.2506C28.1878 30.2506 28.3688 30.1801 28.5072 30.0531L36.25 22.9553V34Z" fill="white"/>
<defs>
<linearGradient id="paint0_linear_19_526" x1="56" y1="28" x2="0" y2="28" gradientUnits="userSpaceOnUse">
<stop stop-color="#194B6A"/>
<stop offset="1" stop-color="#14A9AC"/>
</linearGradient>
</defs>
</svg>
