<svg width="45" height="45" viewBox="0 0 45 45" fill="none" xmlns="http://www.w3.org/2000/svg">
<path d="M40.2719 8.12101C40.2719 8.12101 40.2719 8.1382 40.2719 8.14679L30.2687 41.1365C30.1173 41.6723 29.8057 42.149 29.3755 42.5026C28.9454 42.8562 28.4175 43.0698 27.8625 43.1148C27.7834 43.1216 27.7044 43.1251 27.6253 43.1251C27.1052 43.1267 26.5955 42.9795 26.1563 42.7008C25.7172 42.4222 25.3669 42.0237 25.1469 41.5524L18.8906 28.7134C18.828 28.5847 18.8071 28.4397 18.8308 28.2986C18.8546 28.1575 18.9217 28.0273 19.0229 27.9262L28.9779 17.9712C29.2249 17.7112 29.3606 17.365 29.356 17.0065C29.3514 16.648 29.2069 16.3054 28.9534 16.0518C28.6998 15.7983 28.3573 15.6538 27.9987 15.6492C27.6402 15.6446 27.294 15.7803 27.034 16.0273L17.0739 25.9823C16.9728 26.0835 16.8426 26.1507 16.7015 26.1744C16.5604 26.1981 16.4154 26.1772 16.2867 26.1146L3.43561 19.8601C2.93308 19.619 2.51567 19.2309 2.2387 18.7472C1.96173 18.2635 1.83826 17.7071 1.88467 17.1517C1.93108 16.5962 2.14518 16.068 2.49858 15.637C2.85198 15.206 3.328 14.8925 3.86357 14.7382L36.8533 4.73507H36.879C37.3487 4.60311 37.8451 4.59848 38.3172 4.72167C38.7893 4.84485 39.2201 5.09141 39.5654 5.43605C39.9108 5.78069 40.1582 6.21101 40.2823 6.68284C40.4065 7.15467 40.4029 7.65104 40.2719 8.12101Z" fill="white"/>
</svg>
