<svg width="144" height="24" viewBox="0 0 144 24" fill="none" xmlns="http://www.w3.org/2000/svg">
<path d="M131.125 6.375V14.625C131.124 15.8181 130.649 16.962 129.806 17.8056C128.962 18.6493 127.818 19.1238 126.625 19.125C126.426 19.125 126.235 19.046 126.095 18.9053C125.954 18.7647 125.875 18.5739 125.875 18.375C125.875 18.1761 125.954 17.9853 126.095 17.8447C126.235 17.704 126.426 17.625 126.625 17.625C127.421 17.625 128.184 17.3089 128.746 16.7463C129.309 16.1837 129.625 15.4206 129.625 14.625V13.875H124C123.602 13.875 123.221 13.717 122.939 13.4357C122.658 13.1544 122.5 12.7728 122.5 12.375V6.375C122.5 5.97718 122.658 5.59564 122.939 5.31434C123.221 5.03304 123.602 4.875 124 4.875H129.625C130.023 4.875 130.404 5.03304 130.686 5.31434C130.967 5.59564 131.125 5.97718 131.125 6.375ZM140.5 4.875H134.875C134.477 4.875 134.096 5.03304 133.814 5.31434C133.533 5.59564 133.375 5.97718 133.375 6.375V12.375C133.375 12.7728 133.533 13.1544 133.814 13.4357C134.096 13.717 134.477 13.875 134.875 13.875H140.5V14.625C140.5 15.4206 140.184 16.1837 139.621 16.7463C139.059 17.3089 138.296 17.625 137.5 17.625C137.301 17.625 137.11 17.704 136.97 17.8447C136.829 17.9853 136.75 18.1761 136.75 18.375C136.75 18.5739 136.829 18.7647 136.97 18.9053C137.11 19.046 137.301 19.125 137.5 19.125C138.693 19.1238 139.837 18.6493 140.681 17.8056C141.524 16.962 141.999 15.8181 142 14.625V6.375C142 5.97718 141.842 5.59564 141.561 5.31434C141.279 5.03304 140.898 4.875 140.5 4.875Z" fill="#0A2638"/>
</svg>
