<svg width="24" height="24" viewBox="0 0 24 24" fill="none" xmlns="http://www.w3.org/2000/svg">
<g id="Quotes">
<path id="Vector" d="M13.125 17.25L13.125 9C13.1262 7.80691 13.6007 6.66303 14.4444 5.81939C15.288 4.97574 16.4319 4.50124 17.625 4.5C17.8239 4.5 18.0147 4.57902 18.1553 4.71967C18.296 4.86032 18.375 5.05109 18.375 5.25C18.375 5.44891 18.296 5.63968 18.1553 5.78033C18.0147 5.92098 17.8239 6 17.625 6C16.8294 6 16.0663 6.31607 15.5037 6.87868C14.9411 7.44129 14.625 8.20435 14.625 9V9.75H20.25C20.6478 9.75 21.0294 9.90804 21.3107 10.1893C21.592 10.4706 21.75 10.8522 21.75 11.25V17.25C21.75 17.6478 21.592 18.0294 21.3107 18.3107C21.0294 18.592 20.6478 18.75 20.25 18.75H14.625C14.2272 18.75 13.8456 18.592 13.5643 18.3107C13.283 18.0294 13.125 17.6478 13.125 17.25ZM3.75 18.75L9.375 18.75C9.77282 18.75 10.1544 18.592 10.4357 18.3107C10.717 18.0294 10.875 17.6478 10.875 17.25L10.875 11.25C10.875 10.8522 10.717 10.4706 10.4357 10.1893C10.1544 9.90804 9.77282 9.75 9.375 9.75H3.75V9C3.75 8.20435 4.06607 7.44129 4.62868 6.87868C5.19129 6.31607 5.95435 6 6.75 6C6.94891 6 7.13968 5.92098 7.28033 5.78033C7.42098 5.63968 7.5 5.44891 7.5 5.25C7.5 5.05109 7.42098 4.86032 7.28033 4.71967C7.13968 4.57902 6.94891 4.5 6.75 4.5C5.55691 4.50124 4.41303 4.97574 3.56939 5.81939C2.72574 6.66303 2.25124 7.80691 2.25 9V17.25C2.25 17.6478 2.40804 18.0294 2.68934 18.3107C2.97064 18.592 3.35217 18.75 3.75 18.75Z" fill="#0A2638"/>
</g>
</svg>
