<svg width="45" height="45" viewBox="0 0 45 45" fill="none" xmlns="http://www.w3.org/2000/svg">
<path d="M41.6521 23.3594L36.1521 9.60938C36.0492 9.35509 35.8726 9.13739 35.6451 8.98425C35.4175 8.8311 35.1493 8.74953 34.875 8.75C34.7749 8.75153 34.6752 8.76362 34.5777 8.78609L23.875 11.1562V7.375C23.875 7.01033 23.7302 6.66059 23.4723 6.40273C23.2144 6.14487 22.8647 6 22.5 6C22.1354 6 21.7856 6.14487 21.5278 6.40273C21.2699 6.66059 21.125 7.01033 21.125 7.375V11.7716L9.82768 14.2861C9.60988 14.3336 9.4069 14.4334 9.23623 14.5768C9.06556 14.7202 8.93232 14.903 8.84799 15.1094L3.348 28.8594C3.2822 29.0233 3.24893 29.1984 3.25003 29.375C3.25003 33.3814 7.46784 34.875 10.125 34.875C12.7822 34.875 17 33.3814 17 29.375C17.0011 29.1984 16.9679 29.0233 16.9021 28.8594L12.0019 16.6167L21.125 14.5938V36.25H18.375C18.0104 36.25 17.6606 36.3949 17.4028 36.6527C17.1449 36.9106 17 37.2603 17 37.625C17 37.9897 17.1449 38.3394 17.4028 38.5973C17.6606 38.8551 18.0104 39 18.375 39H26.625C26.9897 39 27.3394 38.8551 27.5973 38.5973C27.8552 38.3394 28 37.9897 28 37.625C28 37.2603 27.8552 36.9106 27.5973 36.6527C27.3394 36.3949 26.9897 36.25 26.625 36.25H23.875V13.9784L32.6407 12.0328L28.098 23.3594C28.0322 23.5233 27.9989 23.6984 28 23.875C28 27.8814 32.2178 29.375 34.875 29.375C37.5322 29.375 41.75 27.8814 41.75 23.875C41.7511 23.6984 41.7178 23.5233 41.6521 23.3594ZM14.1521 29.375H6.10659L10.125 19.3272L14.1521 29.375ZM30.8652 23.875L34.875 13.8272L38.8935 23.875H30.8652Z" fill="white"/>
</svg>
