<svg width="20" height="16" viewBox="0 0 20 16" fill="none" xmlns="http://www.w3.org/2000/svg">
<path id="Vector" d="M9.125 2.375V10.625C9.12376 11.8181 8.64925 12.962 7.80561 13.8056C6.96197 14.6493 5.81809 15.1238 4.625 15.125C4.42609 15.125 4.23532 15.046 4.09467 14.9053C3.95402 14.7647 3.875 14.5739 3.875 14.375C3.875 14.1761 3.95402 13.9853 4.09467 13.8447C4.23532 13.704 4.42609 13.625 4.625 13.625C5.42065 13.625 6.18371 13.3089 6.74632 12.7463C7.30893 12.1837 7.625 11.4206 7.625 10.625V9.875H2C1.60218 9.875 1.22064 9.71696 0.93934 9.43566C0.658035 9.15436 0.5 8.77282 0.5 8.375V2.375C0.5 1.97718 0.658035 1.59564 0.93934 1.31434C1.22064 1.03304 1.60218 0.875 2 0.875H7.625C8.02282 0.875 8.40436 1.03304 8.68566 1.31434C8.96696 1.59564 9.125 1.97718 9.125 2.375ZM18.5 0.875H12.875C12.4772 0.875 12.0956 1.03304 11.8143 1.31434C11.533 1.59564 11.375 1.97718 11.375 2.375V8.375C11.375 8.77282 11.533 9.15436 11.8143 9.43566C12.0956 9.71696 12.4772 9.875 12.875 9.875H18.5V10.625C18.5 11.4206 18.1839 12.1837 17.6213 12.7463C17.0587 13.3089 16.2956 13.625 15.5 13.625C15.3011 13.625 15.1103 13.704 14.9697 13.8447C14.829 13.9853 14.75 14.1761 14.75 14.375C14.75 14.5739 14.829 14.7647 14.9697 14.9053C15.1103 15.046 15.3011 15.125 15.5 15.125C16.6931 15.1238 17.837 14.6493 18.6806 13.8056C19.5243 12.962 19.9988 11.8181 20 10.625V2.375C20 1.97718 19.842 1.59564 19.5607 1.31434C19.2794 1.03304 18.8978 0.875 18.5 0.875Z" fill="#0A2638"/>
</svg>
