<svg width="32" height="32" viewBox="0 0 32 32" fill="none" xmlns="http://www.w3.org/2000/svg">
<path d="M16 32C19.1645 32 22.2579 31.0616 24.8891 29.3035C27.5203 27.5454 29.5711 25.0466 30.7821 22.1229C31.9931 19.1993 32.3099 15.9823 31.6926 12.8786C31.0752 9.77486 29.5513 6.92394 27.3137 4.6863C25.0761 2.44866 22.2251 0.924809 19.1214 0.307444C16.0177 -0.309917 12.8007 0.00693512 9.87706 1.21794C6.95345 2.42894 4.45459 4.4797 2.69649 7.11088C0.938385 9.74207 1.90735e-06 12.8355 1.90735e-06 16C0.00448036 20.2421 1.69163 24.3092 4.69124 27.3088C7.69085 30.3084 11.7579 31.9955 16 32ZM12.6677 10.7169C12.5533 10.6026 12.4626 10.4668 12.4007 10.3174C12.3389 10.168 12.307 10.0079 12.307 9.84616C12.307 9.68444 12.3389 9.52431 12.4007 9.3749C12.4626 9.2255 12.5533 9.08974 12.6677 8.97539C12.782 8.86104 12.9178 8.77033 13.0672 8.70845C13.2166 8.64656 13.3767 8.6147 13.5385 8.6147C13.7002 8.6147 13.8603 8.64656 14.0097 8.70845C14.1591 8.77033 14.2949 8.86104 14.4092 8.97539L20.5631 15.1292C20.6775 15.2435 20.7683 15.3793 20.8302 15.5287C20.8922 15.6781 20.924 15.8383 20.924 16C20.924 16.1617 20.8922 16.3219 20.8302 16.4713C20.7683 16.6207 20.6775 16.7565 20.5631 16.8708L14.4092 23.0246C14.2949 23.139 14.1591 23.2297 14.0097 23.2916C13.8603 23.3534 13.7002 23.3853 13.5385 23.3853C13.3767 23.3853 13.2166 23.3534 13.0672 23.2916C12.9178 23.2297 12.782 23.139 12.6677 23.0246C12.5533 22.9103 12.4626 22.7745 12.4007 22.6251C12.3389 22.4757 12.307 22.3156 12.307 22.1538C12.307 21.9921 12.3389 21.832 12.4007 21.6826C12.4626 21.5332 12.5533 21.3974 12.6677 21.2831L17.9523 16L12.6677 10.7169Z" fill="white"/>
</svg>
